<?xml version="1.0" encoding="UTF-8" standalone="no"?>
<!-- Created with Inkscape (http://www.inkscape.org/) -->

<svg
   xmlns:dc="http://purl.org/dc/elements/1.1/"
   xmlns:cc="http://creativecommons.org/ns#"
   xmlns:rdf="http://www.w3.org/1999/02/22-rdf-syntax-ns#"
   xmlns:svg="http://www.w3.org/2000/svg"
   xmlns="http://www.w3.org/2000/svg"
   xmlns:sodipodi="http://sodipodi.sourceforge.net/DTD/sodipodi-0.dtd"
   xmlns:inkscape="http://www.inkscape.org/namespaces/inkscape"
   width="541.86664mm"
   height="541.86664mm"
   viewBox="0 0 541.86664 541.86664"
   version="1.1"
   id="svg1223"
   inkscape:version="0.92.4 (5da689c313, 2019-01-14)"
   sodipodi:docname="CLocalAzure.svg"
   inkscape:export-filename="C:\Users\jakub\Desktop\CLocalAzure.png"
   inkscape:export-xdpi="255"
   inkscape:export-ydpi="255">
  <defs
     id="defs1217" />
  <sodipodi:namedview
     id="base"
     pagecolor="#ffffff"
     bordercolor="#666666"
     borderopacity="1.0"
     inkscape:pageopacity="0.0"
     inkscape:pageshadow="2"
     inkscape:zoom="0.24748737"
     inkscape:cx="580.9241"
     inkscape:cy="1005.3841"
     inkscape:document-units="mm"
     inkscape:current-layer="layer1"
     showgrid="false"
     fit-margin-top="0"
     fit-margin-left="0"
     fit-margin-right="0"
     fit-margin-bottom="0"
     inkscape:window-width="1851"
     inkscape:window-height="1054"
     inkscape:window-x="61"
     inkscape:window-y="-8"
     inkscape:window-maximized="1" />
  <metadata
     id="metadata1220">
    <rdf:RDF>
      <cc:Work
         rdf:about="">
        <dc:format>image/svg+xml</dc:format>
        <dc:type
           rdf:resource="http://purl.org/dc/dcmitype/StillImage" />
        <dc:title />
      </cc:Work>
    </rdf:RDF>
  </metadata>
  <g
     inkscape:label="Layer 1"
     inkscape:groupmode="layer"
     id="layer1"
     transform="translate(189.14449,87.224194)">
    <g
       transform="matrix(0.5429978,0,0,0.5429978,306.82497,-947.34073)"
       id="g1187">
      <rect
         style="opacity:1;fill:#164450;fill-opacity:1;stroke:none;stroke-width:0.25814417;stroke-miterlimit:4;stroke-dasharray:none;stroke-opacity:1"
         id="rect963"
         width="997.91687"
         height="997.91687"
         x="-913.3913"
         y="1584.0148" />
      <g
         id="g1166">
        <g
           id="g1122">
          <path
             id="path951"
             d="m -265.22841,1917.2186 a 148.45216,148.45216 0 0 0 -148.45227,148.4524 148.45216,148.45216 0 0 0 82.01979,132.5683 h 133.1738 a 148.45216,148.45216 0 0 0 81.71048,-132.5683 148.45216,148.45216 0 0 0 -148.4518,-148.4524 z"
             style="opacity:1;fill:#ffffff;fill-opacity:1;stroke:none;stroke-width:0.28738195;stroke-miterlimit:4;stroke-dasharray:none;stroke-opacity:1"
             inkscape:connector-curvature="0" />
          <path
             inkscape:connector-curvature="0"
             id="path953"
             transform="scale(0.26458333)"
             d="m -1697.1875,6932.3965 a 689.24999,689.24999 0 0 0 -689.25,689.248 689.24999,689.24999 0 0 0 633.3965,686.6621 h 111.7226 891.1309 A 561.07899,561.07899 0 0 0 -580.75,8176.7129 l -528.8535,-915.9981 -0.5098,0.8829 a 689.24999,689.24999 0 0 0 -2.6621,-3.8946 689.24999,689.24999 0 0 0 -584.4121,-325.3066 z"
             style="opacity:1;fill:#84cadd;fill-opacity:1;stroke:none;stroke-width:1.48780251;stroke-miterlimit:4;stroke-dasharray:none;stroke-opacity:1" />
          <path
             inkscape:connector-curvature="0"
             id="path955"
             transform="scale(0.26458333)"
             d="m -2188.1738,7307.2598 a 503.18597,503.18597 0 0 0 -503.1875,503.1875 503.18597,503.18597 0 0 0 434.1074,497.8593 h 615.9355 321.6778 l -439.5703,-761.3574 -0.3711,0.6465 a 503.18597,503.18597 0 0 0 -428.5918,-240.3359 z"
             style="opacity:1;fill:#0cb1cb;fill-opacity:1;stroke:none;stroke-width:1.08616793;stroke-miterlimit:4;stroke-dasharray:none;stroke-opacity:1" />
        </g>
        <g
           aria-label="CLocal Azure"
           style="font-style:normal;font-variant:normal;font-weight:normal;font-stretch:normal;font-size:0.87108707px;line-height:1;font-family:Calibri;-inkscape-font-specification:'Calibri, Normal';font-variant-ligatures:normal;font-variant-caps:small-caps;font-variant-numeric:normal;text-align:justify;letter-spacing:0px;word-spacing:0px;writing-mode:lr-tb;text-anchor:start;fill:#ffffff;fill-opacity:1;stroke:none;stroke-width:0.16332886"
           id="text961">
          <path
             inkscape:connector-curvature="0"
             d="m -620.06775,2319.2557 q -5.055,6.1042 -11.92218,9.347 -6.86717,3.1475 -15.35576,3.1475 -7.63019,0 -14.21123,-2.766 -6.48566,-2.7659 -11.25453,-7.5348 -4.76887,-4.7689 -7.53482,-11.2545 -2.76594,-6.5811 -2.76594,-14.1159 0,-7.5348 2.76594,-14.0205 2.76595,-6.581 7.53482,-11.3499 4.76887,-4.7688 11.25453,-7.5348 6.58104,-2.7659 14.21123,-2.7659 8.20246,0 14.40199,2.8613 6.29491,2.8613 11.15915,8.2978 l -9.06085,8.7747 q -3.05207,-3.5289 -7.05793,-5.6272 -3.91047,-2.0983 -9.34698,-2.0983 -4.76887,0 -8.96548,1.7168 -4.1966,1.6214 -7.34405,4.6735 -3.05208,3.052 -4.86425,7.4394 -1.81217,4.292 -1.81217,9.6331 0,5.3411 1.81217,9.7285 1.81217,4.292 4.86425,7.3441 3.14745,3.052 7.34405,4.7688 4.19661,1.6215 8.96548,1.6215 5.72264,0 10.11,-2.2891 4.48274,-2.3844 7.91633,-6.6764 z"
             style="font-style:normal;font-variant:normal;font-weight:bold;font-stretch:normal;font-size:95.37739563px;font-family:'Product Sans';-inkscape-font-specification:'Product Sans Bold';fill:#ffffff;fill-opacity:1;stroke-width:0.16332886"
             id="path1124" />
          <path
             inkscape:connector-curvature="0"
             d="m -609.73122,2261.9339 h 12.87594 v 56.0819 h 28.89936 v 12.2083 h -41.7753 z"
             style="font-style:normal;font-variant:normal;font-weight:bold;font-stretch:normal;font-size:95.37739563px;font-family:'Product Sans';-inkscape-font-specification:'Product Sans Bold';fill:#ffffff;fill-opacity:1;stroke-width:0.16332886"
             id="path1126" />
          <path
             inkscape:connector-curvature="0"
             d="m -538.27418,2281.9632 q 5.43651,0 9.91924,1.9075 4.57812,1.8122 7.82095,5.1504 3.33821,3.2428 5.15038,7.8209 1.90755,4.5781 1.90755,10.0147 0,5.4365 -1.90755,10.0146 -1.81217,4.5781 -5.15038,7.9163 -3.24283,3.2428 -7.82095,5.1504 -4.48273,1.8122 -9.91924,1.8122 -5.43652,0 -10.01463,-1.8122 -4.48274,-1.9076 -7.82095,-5.1504 -3.24283,-3.3382 -5.15038,-7.9163 -1.81217,-4.5781 -1.81217,-10.0146 0,-5.4366 1.81217,-10.0147 1.90755,-4.5781 5.15038,-7.8209 3.33821,-3.3382 7.82095,-5.1504 4.57811,-1.9075 10.01463,-1.9075 z m 0,38.2463 q 2.38443,0 4.57811,-0.8584 2.28906,-0.9538 4.00585,-2.6706 1.71679,-1.7168 2.67057,-4.1966 1.04915,-2.4798 1.04915,-5.6272 0,-3.1475 -1.04915,-5.6273 -0.95378,-2.4798 -2.67057,-4.1966 -1.71679,-1.7168 -4.00585,-2.5752 -2.19368,-0.9538 -4.57811,-0.9538 -2.47982,0 -4.6735,0.9538 -2.19368,0.8584 -3.91047,2.5752 -1.71679,1.7168 -2.76594,4.1966 -0.95378,2.4798 -0.95378,5.6273 0,3.1474 0.95378,5.6272 1.04915,2.4798 2.76594,4.1966 1.71679,1.7168 3.91047,2.6706 2.19368,0.8584 4.6735,0.8584 z"
             style="font-style:normal;font-variant:normal;font-weight:bold;font-stretch:normal;font-size:95.37739563px;font-family:'Product Sans';-inkscape-font-specification:'Product Sans Bold';fill:#ffffff;fill-opacity:1;stroke-width:0.16332886"
             id="path1128" />
          <path
             inkscape:connector-curvature="0"
             d="m -461.09747,2318.3019 q -3.05208,5.9134 -8.58397,9.7285 -5.43651,3.7198 -13.63896,3.7198 -5.43651,0 -10.01463,-1.8122 -4.48274,-1.9076 -7.82095,-5.2458 -3.24283,-3.3382 -5.15038,-7.8209 -1.81217,-4.5781 -1.81217,-10.0146 0,-5.4366 1.81217,-10.0147 1.90755,-4.5781 5.15038,-7.8209 3.33821,-3.3382 7.82095,-5.1504 4.57812,-1.9075 10.01463,-1.9075 8.10708,0 13.63896,3.7197 5.53189,3.7197 8.10708,9.6331 l -11.44528,4.7689 q -1.62142,-3.2429 -4.19661,-4.8643 -2.47981,-1.7168 -6.29491,-1.7168 -2.47981,0 -4.67349,0.9538 -2.19368,0.9538 -3.91047,2.6706 -1.62142,1.7168 -2.57519,4.1966 -0.95378,2.4798 -0.95378,5.5319 0,3.052 0.95378,5.5318 0.95377,2.4799 2.57519,4.1967 1.71679,1.7167 3.91047,2.6705 2.19368,0.9538 4.67349,0.9538 3.91048,0 6.58104,-1.7168 2.76595,-1.8122 4.38736,-5.1504 z"
             style="font-style:normal;font-variant:normal;font-weight:bold;font-stretch:normal;font-size:95.37739563px;font-family:'Product Sans';-inkscape-font-specification:'Product Sans Bold';fill:#ffffff;fill-opacity:1;stroke-width:0.16332886"
             id="path1130" />
          <path
             inkscape:connector-curvature="0"
             d="m -425.22962,2325.2645 h -0.76302 q -2.19368,2.6706 -5.34113,4.5781 -3.05208,1.9076 -7.91632,1.9076 -3.62435,0 -6.86718,-1.2399 -3.14745,-1.1446 -5.53189,-3.2429 -2.38443,-2.0983 -3.71971,-5.055 -1.33529,-2.9567 -1.33529,-6.4856 0,-3.6244 1.43066,-6.4857 1.43066,-2.9567 4.00585,-5.055 2.57519,-2.0983 6.00878,-3.1475 3.52896,-1.1445 7.63019,-1.1445 4.57812,0 7.53482,0.763 2.95669,0.6677 4.86424,1.4307 v -1.4307 q 0,-3.7197 -2.9567,-6.1041 -2.9567,-2.4798 -7.34406,-2.4798 -6.48566,0 -10.9684,5.4365 l -9.06085,-6.1996 q 7.43944,-9.3469 20.31539,-9.3469 10.87302,0 16.59566,5.1503 5.72265,5.055 5.72265,15.0697 v 28.0409 h -12.30369 z m 0,-14.0205 q -2.19368,-1.0491 -4.57811,-1.6214 -2.28906,-0.6676 -5.055,-0.6676 -4.48274,0 -6.96255,2.0029 -2.38444,1.9075 -2.38444,4.7689 0,2.8613 2.28906,4.5781 2.38443,1.7168 5.43651,1.7168 2.47981,0 4.57811,-0.8584 2.09831,-0.9538 3.52897,-2.3845 1.52604,-1.526 2.28906,-3.4336 0.85839,-2.0029 0.85839,-4.1012 z"
             style="font-style:normal;font-variant:normal;font-weight:bold;font-stretch:normal;font-size:95.37739563px;font-family:'Product Sans';-inkscape-font-specification:'Product Sans Bold';fill:#ffffff;fill-opacity:1;stroke-width:0.16332886"
             id="path1132" />
          <path
             inkscape:connector-curvature="0"
             d="m -402.99178,2330.2241 v -68.2902 h 12.49444 v 68.2902 z"
             style="font-style:normal;font-variant:normal;font-weight:bold;font-stretch:normal;font-size:95.37739563px;font-family:'Product Sans';-inkscape-font-specification:'Product Sans Bold';fill:#ffffff;fill-opacity:1;stroke-width:0.16332886"
             id="path1134" />
          <path
             inkscape:connector-curvature="0"
             d="M -385.2337,2330.2241 Z"
             style="font-style:normal;font-variant:normal;font-weight:bold;font-stretch:normal;font-size:95.37739563px;font-family:'Product Sans';-inkscape-font-specification:'Product Sans Bold';fill:#ffffff;fill-opacity:1;stroke-width:0.16332886"
             id="path1136" />
          <path
             inkscape:connector-curvature="0"
             d="m -332.5183,2272.7116 -11.15915,30.8069 h 22.69982 l -11.15916,-30.8069 z m -20.79227,57.5125 h -9.7285 l 25.7519,-68.2902 h 9.91925 l 25.7519,68.2902 h -9.7285 l -6.58104,-18.5032 h -28.70859 z"
             style="font-style:normal;font-variant:normal;font-weight:normal;font-stretch:normal;font-size:95.37739563px;font-family:'Product Sans';-inkscape-font-specification:'Product Sans';fill:#ffffff;fill-opacity:1;stroke-width:0.16332886"
             id="path1138" />
          <path
             inkscape:connector-curvature="0"
             d="m -259.65296,2330.2241 h -37.76945 v -7.6302 l 26.61029,-31.093 h -25.84727 v -8.0117 h 36.62492 v 7.6302 l -26.61029,31.093 h 26.9918 z"
             style="font-style:normal;font-variant:normal;font-weight:normal;font-stretch:normal;font-size:95.37739563px;font-family:'Product Sans';-inkscape-font-specification:'Product Sans';fill:#ffffff;fill-opacity:1;stroke-width:0.16332886"
             id="path1140" />
          <path
             inkscape:connector-curvature="0"
             d="m -210.15806,2330.2241 h -8.39321 v -6.4856 h -0.38151 q -2.00293,3.4335 -6.19953,5.7226 -4.10123,2.2891 -8.58397,2.2891 -8.58396,0 -13.25746,-4.8643 -4.57811,-4.9596 -4.57811,-14.0205 v -29.3762 h 8.77472 v 28.804 q 0.28613,11.4453 11.54067,11.4453 5.24575,0 8.77472,-4.1966 3.52896,-4.292 3.52896,-10.2054 v -25.8473 h 8.77472 z"
             style="font-style:normal;font-variant:normal;font-weight:normal;font-stretch:normal;font-size:95.37739563px;font-family:'Product Sans';-inkscape-font-specification:'Product Sans';fill:#ffffff;fill-opacity:1;stroke-width:0.16332886"
             id="path1142" />
          <path
             inkscape:connector-curvature="0"
             d="m -190.60866,2330.2241 h -8.77472 v -46.7349 h 8.39321 v 7.6302 h 0.38151 q 1.33528,-3.7197 5.43651,-6.2949 4.1966,-2.6706 8.20245,-2.6706 3.8151,0 6.48567,1.1445 l -2.67057,8.4886 q -1.62142,-0.6676 -5.15038,-0.6676 -4.95962,0 -8.67934,4.0058 -3.62434,4.0059 -3.62434,9.347 z"
             style="font-style:normal;font-variant:normal;font-weight:normal;font-stretch:normal;font-size:95.37739563px;font-family:'Product Sans';-inkscape-font-specification:'Product Sans';fill:#ffffff;fill-opacity:1;stroke-width:0.16332886"
             id="path1144" />
          <path
             inkscape:connector-curvature="0"
             d="m -146.54583,2331.7502 q -10.30076,0 -16.97718,-7.058 -6.67642,-7.0579 -6.67642,-17.8355 0,-10.6823 6.48566,-17.7402 6.48567,-7.1533 16.59567,-7.1533 10.39614,0 16.50029,6.7718 6.19953,6.6764 6.19953,18.7893 l -0.0954,0.9538 h -36.72029 q 0.19075,6.8671 4.57811,11.0638 4.38736,4.1966 10.49152,4.1966 8.39321,0 13.16208,-8.3933 l 7.82094,3.8151 q -3.14745,5.9134 -8.77472,9.2517 -5.53189,3.3382 -12.58981,3.3382 z m -14.02048,-30.5208 h 26.80105 q -0.38151,-4.8643 -4.00585,-8.0117 -3.52897,-3.2428 -9.53774,-3.2428 -4.95963,0 -8.58397,3.052 -3.52896,3.0521 -4.67349,8.2025 z"
             style="font-style:normal;font-variant:normal;font-weight:normal;font-stretch:normal;font-size:95.37739563px;font-family:'Product Sans';-inkscape-font-specification:'Product Sans';fill:#ffffff;fill-opacity:1;stroke-width:0.16332886"
             id="path1146" />
        </g>
      </g>
    </g>
  </g>
</svg>
