<?xml version="1.0" encoding="utf-8"?>
<!-- Generator: Adobe Illustrator 24.0.0, SVG Export Plug-In . SVG Version: 6.00 Build 0)  -->
<svg version="1.1" xmlns="http://www.w3.org/2000/svg" xmlns:xlink="http://www.w3.org/1999/xlink" x="0px" y="0px"
	 viewBox="0 0 364.55 312.12" style="enable-background:new 0 0 364.55 312.12;" xml:space="preserve">
<style type="text/css">
	.st0{fill:#69C9CA;}
	.st1{fill:#FFFFFF;}
	.st2{fill:#00A651;}
	.st3{fill:#B86BAC;}
	.st4{fill:#FFF200;}
	.st5{fill:#ED1C24;}
	.st6{fill:none;stroke:#000000;stroke-width:5;stroke-miterlimit:10;}
	.st7{fill:none;stroke:#000000;stroke-width:5;stroke-linecap:round;stroke-miterlimit:10;}
	.st8{fill:none;}
	.st9{font-family:'ArialRoundedMTBold';}
	.st10{font-size:26px;}
</style>
<g id="Layer_4">
	<rect class="st0" width="364.55" height="312.12"/>
</g>
<g id="cloud">
	<g>
		<g id="XMLID_1_">
			<g>
				<path d="M269.77,120.53c10.59,4.36,17.5,14.7,17.37,26.29c-0.17,15.33-13.03,27.8-28.67,27.8H133.8c-3.07,0-5.94-1.2-8.09-3.4
					c-2.15-2.2-3.3-5.11-3.24-8.19c0.35-16.32,0.45-32.92,0.56-48.98c0.04-6.24,0.08-12.48,0.13-18.71
					c0.08-9.18,0.03-17.47-0.15-25.35l-0.06-2.51l2.52-0.05c5.49-0.1,10.91,1.11,15.81,3.5c6.79-16.38,22.8-27.19,40.72-27.19
					c23.34,0,42.5,18.23,43.99,41.2c2.51-0.54,5.09-0.82,7.68-0.82c19.91,0,36.1,16.19,36.1,36.1
					C269.77,120.32,269.77,120.42,269.77,120.53z M282.14,146.77c0.11-10.05-6.21-18.96-15.73-22.16L264.6,124l0.11-1.91
					c0.03-0.62,0.06-1.24,0.06-1.87c0-17.15-13.95-31.1-31.1-31.1c-3.18,0-6.33,0.48-9.35,1.43l-3.28,1.04l0.04-3.68
					c0-21.64-17.53-39.17-39.08-39.17c-16.77,0-31.64,10.67-37.02,26.55l-0.99,2.94l-2.66-1.59c-4.04-2.42-8.58-3.84-13.27-4.15
					c0.14,7.15,0.17,14.67,0.1,22.9c-0.05,6.22-0.09,12.46-0.13,18.69c-0.11,16.08-0.21,32.7-0.56,49.05
					c-0.04,1.73,0.61,3.36,1.81,4.6c1.2,1.22,2.81,1.89,4.52,1.89h124.67C271.38,169.62,282,159.37,282.14,146.77z"/>
				<path class="st1" d="M266.41,124.61c9.52,3.2,15.84,12.11,15.73,22.16c-0.14,12.6-10.76,22.85-23.67,22.85H133.8
					c-1.71,0-3.32-0.67-4.52-1.89c-1.2-1.24-1.85-2.87-1.81-4.6c0.35-16.35,0.45-32.97,0.56-49.05c0.04-6.23,0.08-12.47,0.13-18.69
					c0.07-8.23,0.04-15.75-0.1-22.9c4.69,0.31,9.23,1.73,13.27,4.15l2.66,1.59l0.99-2.94c5.38-15.88,20.25-26.55,37.02-26.55
					c21.55,0,39.08,17.53,39.08,39.17l-0.04,3.68l3.28-1.04c3.02-0.95,6.17-1.43,9.35-1.43c17.15,0,31.1,13.95,31.1,31.1
					c0,0.63-0.03,1.25-0.06,1.87L264.6,124L266.41,124.61z M213.47,94.38c2.41,0,2.42-3.75,0-3.75
					C211.06,90.63,211.05,94.38,213.47,94.38z M212.51,87.22c0.24-4.57-0.49-9.21-2.16-13.62c-0.82-2.21-1.95-4.32-3.34-6.28
					c-0.67-1-1.47-1.9-2.26-2.81c-0.85-0.85-1.71-1.71-2.66-2.46c-3.76-3.05-8.37-4.96-13.02-5.67c-4.66-0.68-9.42-0.43-13.76,1.08
					c4.55,0.14,8.94,0.76,13.08,1.98c4.13,1.2,7.95,3.1,11.18,5.72c1.63,1.3,3.11,2.79,4.41,4.44c0.35,0.4,0.67,0.81,0.96,1.26
					c0.3,0.43,0.63,0.85,0.92,1.29c0.54,0.92,1.15,1.8,1.63,2.77C209.58,78.7,211.09,82.88,212.51,87.22z"/>
				<path d="M213.47,90.63c2.42,0,2.41,3.75,0,3.75C211.05,94.38,211.06,90.63,213.47,90.63z"/>
				<path d="M210.35,73.6c1.67,4.41,2.4,9.05,2.16,13.62c-1.42-4.34-2.93-8.52-5.02-12.3c-0.48-0.97-1.09-1.85-1.63-2.77
					c-0.29-0.44-0.62-0.86-0.92-1.29c-0.29-0.45-0.61-0.86-0.96-1.26c-1.3-1.65-2.78-3.14-4.41-4.44
					c-3.23-2.62-7.05-4.52-11.18-5.72c-4.14-1.22-8.53-1.84-13.08-1.98c4.34-1.51,9.1-1.76,13.76-1.08
					c4.65,0.71,9.26,2.62,13.02,5.67c0.95,0.75,1.81,1.61,2.66,2.46c0.79,0.91,1.59,1.81,2.26,2.81
					C208.4,69.28,209.53,71.39,210.35,73.6z"/>
				<path d="M141.21,224.21c2.5,0.99,4.28,3.44,4.28,6.29c0,3.74-3.04,6.78-6.78,6.78c-3.74,0-6.78-3.04-6.78-6.78
					c0-2.85,1.78-5.3,4.28-6.29v-12.33c0-0.99-0.51-1.91-1.35-2.47c-5.69-3.75-9.65-7.21-12.37-10.33v46.3
					c2.36,1.15,3.99,3.56,3.99,6.35c0,3.91-3.17,7.08-7.08,7.08c-3.9,0-7.08-3.17-7.08-7.08c0-3.24,2.2-5.97,5.17-6.8v-9.65v-24.39
					c-0.69,0.69-1.37,1.36-2.06,2.01c-0.82,0.76-1.7,1.45-2.56,2.12c-0.47,0.37-0.95,0.74-1.42,1.14c-1.22,1.01-1.92,2.48-1.92,4.04
					v7.45c3.21,1.06,5.53,4.08,5.53,7.63c0,4.43-3.6,8.03-8.03,8.03s-8.03-3.6-8.03-8.03c0-3.55,2.32-6.57,5.53-7.63v-7.45
					c0-3.06,1.36-5.93,3.73-7.9c0.51-0.42,1.03-0.82,1.53-1.22c0.81-0.63,1.57-1.22,2.22-1.83c1.81-1.7,3.61-3.55,5.48-5.63v-12.86
					c-0.04-0.15-0.08-0.29-0.12-0.43c-3.79-1.09-6.58-4.58-6.58-8.71c0-5,4.07-9.07,9.07-9.07s9.07,4.07,9.07,9.07
					c0,4.01-2.63,7.42-6.25,8.61c1.41,3.48,5.21,8.61,14.93,15c2.25,1.49,3.6,3.97,3.6,6.65V224.21z M141.49,230.5
					c0-1.53-1.25-2.78-2.78-2.78s-2.78,1.25-2.78,2.78s1.25,2.78,2.78,2.78S141.49,232.03,141.49,230.5z M124.93,181.62
					c0-2.8-2.28-5.07-5.07-5.07c-2.8,0-5.07,2.27-5.07,5.07c0,2.79,2.27,5.06,5.07,5.06C122.65,186.68,124.93,184.41,124.93,181.62z
					 M122.48,251.73c0-1.69-1.38-3.07-3.08-3.07c-1.69,0-3.08,1.38-3.08,3.07c0,1.7,1.39,3.08,3.08,3.08
					C121.1,254.81,122.48,253.43,122.48,251.73z M111.06,235.28c0-2.22-1.81-4.03-4.03-4.03c-2.22,0-4.03,1.81-4.03,4.03
					c0,2.23,1.81,4.03,4.03,4.03C109.25,239.31,111.06,237.51,111.06,235.28z"/>
				<circle class="st2" cx="138.71" cy="230.5" r="2.78"/>
				<path class="st3" d="M119.86,176.55c2.79,0,5.07,2.27,5.07,5.07c0,2.79-2.28,5.06-5.07,5.06c-2.8,0-5.07-2.27-5.07-5.06
					C114.79,178.82,117.06,176.55,119.86,176.55z"/>
				<path class="st4" d="M119.4,248.66c1.7,0,3.08,1.38,3.08,3.07c0,1.7-1.38,3.08-3.08,3.08c-1.69,0-3.08-1.38-3.08-3.08
					C116.32,250.04,117.71,248.66,119.4,248.66z"/>
				<path d="M118.03,71.66c0.32,16.41,0.02,33.08-0.27,49.21c-0.09,5.15-0.18,10.3-0.25,15.45l-0.1,6.79
					c-0.09,6.99-0.19,13.98-0.31,20.96c-0.11,5.82-4.94,10.55-10.77,10.55H99.8c-9.39,0-18.6-3.86-25.29-10.6
					c-6.57-6.62-10.15-15.28-10.07-24.37c0.13-16.12,11.65-30.14,27.19-33.58c-0.15-1.32-0.23-2.64-0.23-3.96
					c0-14.76,9.37-27.92,23.31-32.76l3.26-1.13L118.03,71.66z M112.77,120.78c0.26-14.88,0.53-30.22,0.32-45.36
					c-10.11,4.92-16.69,15.25-16.69,26.69c0,1.83,0.18,3.68,0.52,5.52l0.48,2.56l-2.58,0.37c-14.35,2.09-25.26,14.61-25.38,29.13
					c-0.06,7.75,3,15.14,8.62,20.81c5.75,5.8,13.68,9.12,21.74,9.12h6.53c3.12,0,5.71-2.53,5.77-5.64
					c0.12-6.98,0.22-13.96,0.31-20.94l0.1-6.79C112.58,131.1,112.67,125.94,112.77,120.78z"/>
				<path class="st1" d="M113.09,75.42c0.21,15.14-0.06,30.48-0.32,45.36c-0.1,5.16-0.19,10.32-0.26,15.47l-0.1,6.79
					c-0.09,6.98-0.19,13.96-0.31,20.94c-0.06,3.11-2.65,5.64-5.77,5.64H99.8c-8.06,0-15.99-3.32-21.74-9.12
					c-5.62-5.67-8.68-13.06-8.62-20.81c0.12-14.52,11.03-27.04,25.38-29.13l2.58-0.37l-0.48-2.56c-0.34-1.84-0.52-3.69-0.52-5.52
					C96.4,90.67,102.98,80.34,113.09,75.42z"/>
				<circle class="st5" cx="107.03" cy="235.28" r="4.03"/>
			</g>
			<g>
			</g>
		</g>
	</g>
	<path class="st6" d="M266.99,181.61"/>
	<path class="st6" d="M132.71,181.61"/>
	<path class="st7" d="M167.99,181.61"/>
	<path class="st7" d="M134.71,181.61"/>
	<path class="st7" d="M233.69,181.61"/>
	<path class="st7" d="M187.25,181.61"/>
	<path class="st7" d="M267.55,181.61"/>
	<path class="st7" d="M250.97,181.61"/>
	<g>
		<g>
			<path d="M167.73,178.56h0.8v5.68h-0.8V178.56z M168.12,178.56h3.18v0.76h-3.18V178.56z M168.12,181.09h2.75v0.76h-2.75V181.09z"
				/>
			<path d="M173.04,184.04c-0.3-0.17-0.54-0.42-0.7-0.73s-0.25-0.68-0.25-1.1v-1.61c0-0.42,0.08-0.78,0.25-1.1s0.4-0.56,0.7-0.73
				s0.65-0.26,1.05-0.26s0.74,0.09,1.05,0.26s0.54,0.42,0.7,0.73s0.25,0.68,0.25,1.1v1.61c0,0.42-0.08,0.78-0.25,1.1
				s-0.4,0.56-0.7,0.73s-0.65,0.26-1.05,0.26S173.34,184.21,173.04,184.04z M174.7,183.35c0.18-0.11,0.32-0.25,0.41-0.45
				s0.15-0.42,0.15-0.67v-1.66c0-0.25-0.05-0.48-0.15-0.67s-0.24-0.34-0.41-0.45s-0.38-0.16-0.62-0.16s-0.44,0.05-0.62,0.16
				s-0.32,0.25-0.41,0.45s-0.15,0.42-0.15,0.67v1.66c0,0.25,0.05,0.48,0.15,0.67s0.24,0.34,0.41,0.45s0.38,0.16,0.62,0.16
				S174.52,183.46,174.7,183.35z"/>
			<path d="M177.37,178.55h0.8v5.68h-0.8V178.55z M177.71,181.08h1.94c0.15,0,0.29-0.04,0.4-0.11s0.21-0.18,0.27-0.31
				s0.1-0.29,0.1-0.46s-0.03-0.33-0.1-0.46s-0.15-0.24-0.27-0.31s-0.25-0.11-0.4-0.11h-1.94v-0.76h1.91c0.33,0,0.62,0.07,0.87,0.2
				s0.44,0.33,0.58,0.58s0.21,0.54,0.21,0.86s-0.07,0.61-0.21,0.86s-0.33,0.44-0.58,0.58s-0.54,0.2-0.86,0.2h-1.91V181.08z
				 M179.26,181.66l0.79-0.18l1.45,2.76h-0.95L179.26,181.66z"/>
			<path d="M185.55,184.03c-0.3-0.17-0.53-0.42-0.69-0.74s-0.25-0.69-0.25-1.11v-1.56c0-0.42,0.08-0.79,0.25-1.11
				s0.4-0.57,0.69-0.74s0.64-0.26,1.04-0.26c0.33,0,0.63,0.07,0.9,0.21s0.5,0.34,0.69,0.59s0.31,0.55,0.37,0.89h-0.82
				c-0.05-0.18-0.13-0.33-0.25-0.47s-0.25-0.25-0.41-0.32s-0.32-0.11-0.48-0.11c-0.23,0-0.44,0.06-0.61,0.17s-0.31,0.27-0.41,0.47
				s-0.14,0.44-0.14,0.71v1.56c0,0.27,0.05,0.5,0.14,0.7s0.23,0.36,0.41,0.47s0.38,0.17,0.61,0.17c0.17,0,0.33-0.04,0.49-0.11
				s0.29-0.17,0.41-0.31s0.2-0.3,0.25-0.49h0.82c-0.06,0.34-0.19,0.63-0.38,0.89s-0.41,0.45-0.69,0.59s-0.57,0.21-0.89,0.21
				C186.2,184.29,185.85,184.21,185.55,184.03z"/>
			<path d="M189.68,178.56h0.8v5.68h-0.8V178.56z M190.08,183.48h3.25v0.76h-3.25V183.48z"/>
			<path d="M195.1,184.04c-0.3-0.17-0.54-0.42-0.7-0.73s-0.25-0.68-0.25-1.1v-1.61c0-0.42,0.08-0.78,0.25-1.1s0.4-0.56,0.7-0.73
				s0.65-0.26,1.05-0.26s0.74,0.09,1.05,0.26s0.54,0.42,0.7,0.73s0.25,0.68,0.25,1.1v1.61c0,0.42-0.08,0.78-0.25,1.1
				s-0.4,0.56-0.7,0.73s-0.65,0.26-1.05,0.26S195.4,184.21,195.1,184.04z M196.76,183.35c0.18-0.11,0.32-0.25,0.41-0.45
				s0.15-0.42,0.15-0.67v-1.66c0-0.25-0.05-0.48-0.15-0.67s-0.24-0.34-0.41-0.45s-0.38-0.16-0.62-0.16s-0.44,0.05-0.62,0.16
				s-0.32,0.25-0.41,0.45s-0.15,0.42-0.15,0.67v1.66c0,0.25,0.05,0.48,0.15,0.67s0.24,0.34,0.41,0.45s0.38,0.16,0.62,0.16
				S196.59,183.46,196.76,183.35z"/>
			<path d="M200.27,184.05c-0.3-0.17-0.53-0.41-0.68-0.72s-0.23-0.7-0.23-1.14v-3.63h0.8v3.65c0,0.41,0.1,0.73,0.31,0.96
				s0.5,0.34,0.88,0.34c0.38,0,0.68-0.11,0.89-0.34s0.31-0.55,0.31-0.96v-3.65h0.8v3.63c0,0.45-0.08,0.83-0.23,1.14
				s-0.38,0.56-0.68,0.72s-0.66,0.25-1.08,0.25C200.92,184.29,200.57,184.21,200.27,184.05z"/>
			<path d="M204.67,178.56h0.8v5.68h-0.8V178.56z M205.21,183.48h1.29c0.42,0,0.74-0.11,0.97-0.33s0.35-0.52,0.35-0.92v-1.67
				c0-0.4-0.12-0.7-0.35-0.92s-0.56-0.33-0.97-0.33h-1.29v-0.76h1.26c0.46,0,0.85,0.08,1.17,0.24s0.57,0.39,0.74,0.7
				s0.25,0.67,0.25,1.1v1.61c0,0.43-0.08,0.8-0.25,1.1s-0.42,0.54-0.74,0.7s-0.71,0.24-1.17,0.24h-1.26V183.48z"/>
			<path d="M213.62,178.56h0.68l2.09,5.68h-0.86l-1.57-4.58l-1.57,4.58h-0.86L213.62,178.56z M212.49,182.23h2.99v0.76h-2.99V182.23
				z"/>
			<path d="M217.25,178.56h0.8v5.68h-0.8V178.56z M217.66,181.28h1.82c0.17,0,0.32-0.04,0.45-0.12s0.23-0.2,0.3-0.34
				s0.11-0.32,0.11-0.51c0-0.2-0.04-0.37-0.11-0.52s-0.17-0.26-0.3-0.35s-0.28-0.12-0.45-0.12h-1.82v-0.76h1.79
				c0.34,0,0.64,0.07,0.89,0.22s0.46,0.35,0.6,0.61s0.21,0.57,0.21,0.91s-0.07,0.65-0.21,0.91s-0.34,0.46-0.6,0.61
				s-0.56,0.21-0.89,0.21h-1.79V181.28z"/>
			<path d="M222.23,178.56h0.8v5.68h-0.8V178.56z M222.64,181.28h1.82c0.17,0,0.32-0.04,0.45-0.12s0.23-0.2,0.3-0.34
				s0.11-0.32,0.11-0.51c0-0.2-0.04-0.37-0.11-0.52s-0.17-0.26-0.3-0.35s-0.28-0.12-0.45-0.12h-1.82v-0.76h1.79
				c0.34,0,0.64,0.07,0.89,0.22s0.46,0.35,0.6,0.61s0.21,0.57,0.21,0.91s-0.07,0.65-0.21,0.91s-0.34,0.46-0.6,0.61
				s-0.56,0.21-0.89,0.21h-1.79V181.28z"/>
			<path d="M227.21,178.56h0.8v5.68h-0.8V178.56z M227.61,183.48h3.25v0.76h-3.25V183.48z"/>
			<path d="M232.59,184.24h-0.8v-5.68h0.8V184.24z"/>
			<path d="M234.82,184.03c-0.3-0.17-0.53-0.42-0.69-0.74s-0.25-0.69-0.25-1.11v-1.56c0-0.42,0.08-0.79,0.25-1.11
				s0.4-0.57,0.69-0.74s0.64-0.26,1.04-0.26c0.33,0,0.63,0.07,0.9,0.21s0.5,0.34,0.69,0.59s0.31,0.55,0.37,0.89H237
				c-0.05-0.18-0.13-0.33-0.25-0.47s-0.25-0.25-0.41-0.32s-0.32-0.11-0.48-0.11c-0.23,0-0.44,0.06-0.61,0.17s-0.31,0.27-0.41,0.47
				s-0.14,0.44-0.14,0.71v1.56c0,0.27,0.05,0.5,0.14,0.7s0.23,0.36,0.41,0.47s0.38,0.17,0.61,0.17c0.17,0,0.33-0.04,0.49-0.11
				s0.29-0.17,0.41-0.31s0.2-0.3,0.25-0.49h0.82c-0.06,0.34-0.19,0.63-0.38,0.89s-0.41,0.45-0.69,0.59s-0.57,0.21-0.89,0.21
				C235.47,184.29,235.12,184.21,234.82,184.03z"/>
			<path d="M240.5,178.56h0.68l2.09,5.68h-0.86l-1.57-4.58l-1.57,4.58h-0.86L240.5,178.56z M239.37,182.23h2.99v0.76h-2.99V182.23z"
				/>
			<path d="M243.35,178.56h4.01v0.76h-4.01V178.56z M244.95,179.02h0.8v5.21h-0.8V179.02z"/>
			<path d="M248.78,184.24h-0.8v-5.68h0.8V184.24z"/>
			<path d="M251.02,184.04c-0.3-0.17-0.54-0.42-0.7-0.73s-0.25-0.68-0.25-1.1v-1.61c0-0.42,0.08-0.78,0.25-1.1s0.4-0.56,0.7-0.73
				s0.65-0.26,1.05-0.26s0.74,0.09,1.05,0.26s0.54,0.42,0.7,0.73s0.25,0.68,0.25,1.1v1.61c0,0.42-0.08,0.78-0.25,1.1
				s-0.4,0.56-0.7,0.73s-0.65,0.26-1.05,0.26S251.32,184.21,251.02,184.04z M252.68,183.35c0.18-0.11,0.32-0.25,0.41-0.45
				s0.15-0.42,0.15-0.67v-1.66c0-0.25-0.05-0.48-0.15-0.67s-0.24-0.34-0.41-0.45s-0.38-0.16-0.62-0.16s-0.44,0.05-0.62,0.16
				s-0.32,0.25-0.41,0.45s-0.15,0.42-0.15,0.67v1.66c0,0.25,0.05,0.48,0.15,0.67s0.24,0.34,0.41,0.45s0.38,0.16,0.62,0.16
				S252.5,183.46,252.68,183.35z"/>
			<path d="M255.35,178.56h0.72l2.78,4.39l-0.09,0.1v-4.49h0.79v5.68h-0.73l-2.77-4.32l0.09-0.1v4.43h-0.79V178.56z"/>
			<path d="M261.88,184.22c-0.24-0.05-0.47-0.13-0.69-0.23s-0.41-0.23-0.6-0.39l0.5-0.61c0.22,0.19,0.45,0.33,0.71,0.42
				s0.54,0.14,0.85,0.14c0.41,0,0.73-0.08,0.96-0.23s0.34-0.37,0.34-0.65v0c0-0.2-0.05-0.35-0.15-0.47s-0.24-0.2-0.4-0.26
				s-0.37-0.11-0.63-0.15c-0.01,0-0.02,0-0.03,0s-0.02,0-0.03,0l-0.06-0.01c-0.38-0.07-0.69-0.14-0.93-0.22s-0.44-0.23-0.61-0.45
				s-0.25-0.53-0.25-0.93v0c0-0.35,0.08-0.65,0.24-0.9s0.39-0.44,0.69-0.57s0.67-0.2,1.09-0.2c0.2,0,0.4,0.02,0.6,0.07
				s0.39,0.11,0.58,0.2s0.38,0.2,0.56,0.33l-0.45,0.63c-0.22-0.16-0.43-0.28-0.65-0.36s-0.43-0.12-0.65-0.12
				c-0.39,0-0.69,0.08-0.9,0.23s-0.32,0.37-0.32,0.66v0c0,0.2,0.06,0.35,0.17,0.46s0.25,0.19,0.41,0.25s0.4,0.11,0.69,0.17
				c0.01,0,0.02,0,0.03,0.01s0.02,0,0.03,0.01c0.01,0,0.03,0,0.04,0.01s0.03,0,0.04,0.01c0.34,0.07,0.63,0.15,0.86,0.25
				s0.42,0.25,0.58,0.47s0.23,0.51,0.23,0.88v0.01c0,0.35-0.08,0.64-0.25,0.89s-0.4,0.43-0.71,0.56s-0.69,0.19-1.13,0.19
				C262.38,184.29,262.12,184.27,261.88,184.22z"/>
		</g>
	</g>
</g>
<g id="Layer_5">
	<rect x="130.94" y="109.18" class="st8" width="115.04" height="50.4"/>
	<text transform="matrix(1 0 0 1 136.7948 128.1061)"><tspan x="0" y="0" class="st9 st10">CLOCAL</tspan><tspan x="-1.6" y="31.2" class="st9 st10">   AZURE</tspan></text>
</g>
</svg>
